<?xml version="1.0" encoding="utf-8"?>
<!-- Generator: Adobe Illustrator 26.3.1, SVG Export Plug-In . SVG Version: 6.00 Build 0)  -->
<svg version="1.1" id="Layer_1" xmlns="http://www.w3.org/2000/svg" xmlns:xlink="http://www.w3.org/1999/xlink" x="0px" y="0px"
	 viewBox="0 0 500 195" style="enable-background:new 0 0 500 195;" xml:space="preserve">
<style type="text/css">
	.st0{fill:#231F20;}
	.st1{fill:#F06724;}
	.st2{fill:none;}
</style>
<path class="st0" d="M53.4,183.7c-5.9,0.2-11.7-2.1-15.8-6.4c-2.5-3-3.9-6.7-4-10.6h13c0.8,3.6,2.6,6.3,7,6.3
	c2.8,0.3,5.4-1.8,5.8-4.7c0-0.1,0-0.2,0-0.3c0-0.9-0.3-1.8-0.7-2.6c-1.7-2.1-8.5-3.9-11.2-4.7c-7-2.3-11.9-6.8-11.9-14
	c0-8.9,8.5-15.2,17.7-15.2s16.9,6.4,17.3,14.9H58.1c-0.4-2.5-2.6-4.4-5-4.2c-2.5-0.2-4.7,1.6-4.8,4c0,0.1,0,0.1,0,0.2
	c0,2.6,2.2,3.3,4.4,4c1.6,0.5,3.1,1,4.7,1.4c8.1,2.4,14.7,5.6,14.7,14.6C72,176.3,63.9,183.7,53.4,183.7z"/>
<path class="st0" d="M112.4,182.1v-4.9h-0.2c-3.1,4.4-8.3,6.8-13.6,6.5c-6.8,0.3-13.4-2.5-17.7-7.6c-3.7-5-3.9-11.2-3.9-16.9v-25.9
	h12.7v25.1c0,7,1.6,14.8,11.2,14.8c8.8,0,10.7-8.1,10.7-14.6v-25.2h12.7v48.8L112.4,182.1L112.4,182.1z"/>
<path class="st0" d="M148.8,183.7c-5.9,0.2-11.7-2.1-15.8-6.4c-2.5-3-3.9-6.7-4-10.6h12.9c0.9,3.6,2.6,6.3,7,6.3
	c2.9,0.3,5.5-1.8,5.8-4.8c0-0.1,0-0.2,0-0.2c0-0.9-0.3-1.8-0.7-2.6c-1.6-2.1-8.5-3.9-11.2-4.7c-7-2.3-11.8-6.8-11.8-14
	c0-8.9,8.5-15.2,17.7-15.2s16.9,6.4,17.3,14.9h-12.4c-0.4-2.5-2.6-4.3-5-4.2c-2.5-0.2-4.7,1.6-4.8,4.1v0.1c0,2.6,2.2,3.3,4.4,4
	c1.6,0.5,3.1,1,4.6,1.4c8.2,2.4,14.8,5.6,14.8,14.6C167.3,176.3,159.2,183.7,148.8,183.7z"/>
<path class="st0" d="M205.8,183.7v-25c0-7-1.3-14.8-10.9-14.8c-9.7,0-10.7,8.1-10.7,15v24.8h-12.7v-65.6h12.7v20.3
	c3.7-3.4,8.7-5.2,13.7-5c6.2,0.1,12.2,2.8,16.4,7.4c3.1,4.3,4.6,9.5,4.2,14.7v28.2H205.8L205.8,183.7z"/>
<path class="st0" d="M225.8,130.4V118h12.7v12.3L225.8,130.4z M225.8,183.7v-48.9h12.7v48.8L225.8,183.7z"/>
<path class="st1" d="M14.1,134.7h12.4v49H14.1V134.7z"/>
<path class="st1" d="M26.4,123.6c0,3.4-2.8,6.1-6.2,6c-3.4,0-6.1-2.8-6-6.2c0-3.4,2.7-6,6.1-6C23.6,117.4,26.4,120.2,26.4,123.6
	L26.4,123.6z"/>
<path class="st1" d="M94.2,78c0.5-1.4,0.7-2.7,0.8-4.2c0.4-8.4-5.3-15.9-13.4-18C73,52.7,63.9,51,54.8,51c-7.3-0.3-14.7,0.1-22,1.1
	c0.2,10.1,9.3,18.5,21.2,19.8c0,0.2,0,0.4,0,0.6c-0.3,7.8,5.9,14.6,14.5,16.9c-0.2,0.6-0.3,1.3-0.3,1.9c0,5.4,3,10.4,7.8,13
	c1.3,0.7,2.7,1.4,4,1.9c1.9,0.5,3.9,0.9,6,0.9c10.2,0.4,18.7-6.2,19.1-14.6C105,85.8,100.6,79.9,94.2,78z M72.2,81.5
	c-4.8,0-8.8-3.9-8.8-8.8c0.5-4.9,4.8-8.5,9.7-8.1c4.8,0,8.9,3.8,9,8.7C81.5,78.3,77.1,81.9,72.2,81.5L72.2,81.5z"/>
<path class="st1" d="M71,80.3c-3.5-0.2-6.2-3.1-6.1-6.6c0.2-3.5,3.1-6.2,6.6-6.1c3.7-0.1,6.6,2.8,6.7,6.5c0,0,0,0,0,0.1
	C77.8,77.8,74.6,80.6,71,80.3z M71.4,68.9c-3-0.3-5.7,2-5.9,5c0,0,0,0,0,0.1c0,3,2.5,5.4,5.5,5.3c3,0.3,5.7-2,5.9-5
	C76.9,71.1,74.5,68.8,71.4,68.9L71.4,68.9z"/>
<path class="st1" d="M74.6,74.8c0.1,2.2-1.6,4.1-3.7,4.2c-2.2,0.1-4.1-1.6-4.2-3.7c-0.1-2.2,1.6-4.1,3.7-4.2c0.1,0,0.3,0,0.4,0
	C72.8,71.1,74.6,72.7,74.6,74.8z"/>
<path class="st2" d="M9.5,63.1c-5.7,0.9-8.4,9.1-6,18.4s8.8,16,14.5,15.1s8.3-9.2,6-18.5S15.1,62.2,9.5,63.1z"/>
<path class="st1" d="M64.3,91.4c-7.6-2.5-13.1-9.1-14.2-17C38.2,71.8,29.5,63,29,52.8l0,0l0,0c-6.4,1-12.6,3-18.4,5.9
	C2.9,62-0.6,70.4,2.3,81.9s11,19.6,18.4,18.7l0,0c22.2-3.7,35.6-2,47.3,1C65.6,98.8,64.3,95.1,64.3,91.4z M17.9,96.7
	c-5.7,0.9-12.1-5.9-14.5-15.1s0.4-17.6,6-18.4c5.7-0.9,12.1,5.8,14.4,15.1S23.5,95.7,17.9,96.7z"/>
<path class="st1" d="M269,69.2c-10.2-10.2-23.3-17.3-37.6-20.3c-1,5.5-2.7,10.8-4.8,15.9c-3.3,8-8,15.3-13.9,21.5
	C227.5,80.7,233.7,64.1,269,69.2z"/>
<path class="st1" d="M229,9.5c-9.5,29.4-28.1,35.7-42.9,43.8c2.3,0.5,4.2,1.8,5.6,3.7c3-1.8,6-3.5,8.1-4.8
	c8.9-5.3,16.2-12.8,21.3-21.8c-2.6,8.7-12.5,19.8-19.4,25.1c-2.6,2-5.7,4.1-8.7,6.1c-0.1,2.1-0.7,4.1-1.9,5.9l0,0
	c8.9-4.9,16.4-12,22-20.5c-3.9,8.5-9.9,15.8-17.3,21.4c1.1,0.5,2,1.2,2.8,2c4.5-3.4,8.2-7.6,11.1-12.3c-2.4,5.3-5.7,10.1-9.7,14.3
	c1.1,2.5,1,5.3-0.3,7.6c-0.1,0.2-0.3,0.5-0.4,0.6c2.8,0.7,5.3,2.6,6.7,5.1c0.5,1.2,0.9,2.5,0.9,3.7C233,65.9,233.6,31.7,229,9.5z"/>
<path class="st1" d="M197.3,72.5c-2-2.3-5.2-3.3-8.1-2.6c-1.2,1.2-2.6,2.3-4.1,3.1c-1.9,1-3.8,1.7-5.9,2.1c2.1,0.7,3.8,2,5,3.8
	l1-0.6c2.1-1.3,4.3-1.6,4.8-0.8c0.5,0.8-0.7,2.6-2.8,3.7c-0.5,0.4-1.1,0.5-1.7,0.8c0.3,1.7,0.1,3.5-0.6,5c2.3-0.4,4.5-1.2,6.5-2.4
	C197,81.5,199.8,75.9,197.3,72.5z"/>
<path class="st1" d="M189.6,58.3c-2.6-3.7-9.1-4.2-14.8-1c-2.1,1.1-3.9,2.7-5.2,4.7c2.8,0.5,5.2,2.3,6.8,4.8
	c0.2-0.2,0.5-0.3,0.6-0.4c2.1-1.2,4.3-1.5,4.8-0.6c0.5,0.8-0.7,2.6-2.8,3.7c-0.5,0.3-1.1,0.5-1.6,0.7c0.1,1,0,2-0.3,2.9
	c2.4-0.3,4.6-1,6.7-2.1C189.4,67.9,192.1,62.2,189.6,58.3z"/>
<path class="st1" d="M203.5,87c-1.2-2.2-3.4-3.7-5.9-4.1c-1.4,1.6-2.9,2.9-4.8,4c-2.3,1.5-4.9,2.4-7.6,2.7c1.5,0.7,2.7,1.9,3.7,3.3
	l1.4-0.6c2.4-0.8,4.6-1,4.9-0.2s-1.2,2.2-3.6,3.1c-0.5,0.2-1.1,0.4-1.6,0.5c0.4,1.8,0.2,3.7-0.5,5.5c2.1-0.1,4.3-0.5,6.2-1.4
	C202.1,97.1,205.5,91.3,203.5,87z"/>
<path class="st1" d="M174.1,68.3c-2.1-4.3-9.3-5.5-16.1-2.6c-1.6,0.6-3,1.5-4.3,2.6c3.1,1,5.6,3.4,6.8,6.5c0.4-0.2,0.8-0.4,1.2-0.5
	c2.6-1,4.7-1.2,5-0.5c0.4,0.7-1.2,2.2-3.7,3.2c-0.7,0.4-1.6,0.5-2.4,0.7c-0.3,1.9-1,3.7-2.2,5.2c2.6,0,5-0.5,7.3-1.6
	C172.5,78.4,176.2,72.6,174.1,68.3z"/>
<path class="st1" d="M186.8,94.8c-1-1.7-2.7-3.1-4.6-3.7c-2,2.2-4.6,3.9-7.3,5c-1.6,0.6-3.3,1.1-5,1.4c0.8,0.9,1.5,2,1.9,3.1
	l1.1-0.4c2.6-0.9,4.7-1,5-0.2c0.4,0.7-1.4,2.1-3.8,2.9c-0.5,0.2-1.1,0.4-1.7,0.5c0.1,2-0.5,4-1.6,5.8c2.7,0.3,5.6-0.2,8.1-1.3
	C185.2,105.1,189,99.3,186.8,94.8z"/>
<path class="st1" d="M182.4,81.2c-1.5-2.6-4.2-4.1-7.1-4.2c-2.2,2.9-5.1,5.2-8.4,6.5c-1,0.4-1.9,0.7-3,1c0.7,0.8,1.4,1.7,1.7,2.8
	c0.1,0.3,0.2,0.5,0.2,0.8l1.8-0.9c2.6-0.9,4.8-1.2,5-0.5c0.2,0.7-1.5,2.1-3.9,3.1c-0.9,0.4-1.9,0.6-2.8,0.8c-0.2,1.6-0.6,3-1.5,4.4
	c3.1,0.5,6.3,0,9.3-1.2C180.6,91.2,184.5,85.6,182.4,81.2z"/>
<path class="st1" d="M107.6,100.4c-0.6-0.1-1.3-0.2-1.9-0.4c-0.5,0.5-0.8,1-1.3,1.5l1.5,0.4c3.2,0.8,5.6,2.3,5.2,3.3
	c-0.3,1-3.1,1-6.3,0.2c-1.2-0.3-2.3-0.7-3.4-1.3c-1.7,1.2-3.7,2-5.8,2.6c2.7,3.7,6.8,6.2,11.2,7c0.9,0.2,1.8,0.3,2.8,0.4h0.5
	c0.7,0,1.5,0,2.2,0h0.5c0.8-0.1,1.7-0.2,2.6-0.4l0.6-0.2c0.5-0.2,1.1-0.3,1.6-0.5l0.8-0.4l1.3-0.6l0.7-0.5c0.4-0.3,0.7-0.5,1-0.8
	l0.6-0.5c0.3-0.3,0.5-0.6,0.8-1c0.2-0.2,0.3-0.4,0.4-0.5c0.4-0.5,0.5-1.2,0.7-1.8c0.5-3.1-0.6-6.3-3-8.4c-3.4,2-7.2,2.9-11.1,2.7
	C109.2,100.7,108.4,100.6,107.6,100.4z"/>
<path class="st1" d="M118.6,96.7l0.5-0.3l0,0C119,96.5,118.8,96.6,118.6,96.7z"/>
<path class="st1" d="M142.1,99.7c-2.9,2.6-6.6,4.2-10.4,4.8c-1.5,0.3-2.9,0.4-4.5,0.3c0,0.5,0,0.8,0,1.2c0.8-0.1,1.7-0.1,2.6-0.1
	c3.3,0,5.9,0.9,5.9,1.8s-2.7,1.7-6,1.6c-1.2,0-2.5-0.2-3.7-0.5c-0.8,1.6-2.1,3.1-3.6,4.1c0.2,0.1,0.5,0.2,0.6,0.4h0.2
	c0.7,0.3,1.5,0.5,2.2,0.8c0.1,0,0.2,0,0.2,0c0.8,0.2,1.6,0.4,2.6,0.5h0.3c0.8,0.1,1.6,0.2,2.6,0.3h1.1c8.4,0,15.2-4.1,15.2-9.2
	c0-0.5-0.1-1.2-0.3-1.7l0,0c-0.2-0.5-0.5-1.1-0.7-1.6h-0.1c-0.4-0.5-0.7-1-1.2-1.4l-0.2-0.3c-0.5-0.5-1-0.8-1.6-1.2l-0.2-0.2
	l-0.7-0.4C142.3,99.3,142.2,99.5,142.1,99.7z"/>
<path class="st1" d="M169.6,102.9c-0.5-3.2-2.7-5.9-5.7-7c-0.1,0.2-0.2,0.4-0.4,0.5c-2.5,2.8-5.8,4.9-9.4,6c-1.5,0.5-2.9,0.8-4.5,1
	c0.3,0.8,0.5,1.6,0.5,2.6l0,0l1.3-0.2c3.3-0.4,5.9,0.2,6,1.1c0.1,1-2.4,2-5.6,2.4c-0.9,0-1.7,0-2.6,0c-0.7,1.6-1.8,2.9-3.3,4
	c3,1.2,6.3,1.6,9.5,1.2C163.9,113.8,170.2,108.6,169.6,102.9z"/>
<path class="st1" d="M143,91c-0.1-0.5-0.3-1.1-0.5-1.6c-0.1-0.2-0.2-0.4-0.4-0.5c-0.2-0.4-0.4-0.6-0.6-1c-0.2-0.2-0.3-0.4-0.5-0.5
	c-0.3-0.3-0.5-0.5-0.9-0.8c-0.2-0.2-0.4-0.3-0.5-0.4c-0.4-0.3-0.9-0.5-1.4-0.7l-0.4-0.2l-0.8-0.3c-3.3,2.2-7.1,3.5-11.2,3.7
	c0.2,0.9,0.2,1.8,0,2.8c-0.1,0.3-0.1,0.5-0.2,0.8h1c2.9,0,5.3,0.8,5.2,1.7v0.2c-0.4,0.7-2.6,1.3-5.3,1.2c-0.5,0-1.2-0.1-1.7-0.2
	h-0.6c-0.1,0.1-0.2,0.3-0.3,0.4l-0.7,0.7l0.5,0.4c0.4,0.4,0.7,0.8,1,1.2c1,1.3,1.7,2.7,2.2,4.3c0.4,0,0.7,0,1.2,0h0.6
	c0.8,0,1.7-0.1,2.6-0.3c3.3-0.5,6.4-1.8,8.9-4l0,0c0.6-0.5,1.2-1.3,1.7-2C142.9,94.6,143.3,92.7,143,91z"/>
<path class="st1" d="M163.1,88.2c-1-2.3-3-3.9-5.4-4.5c-3.2,3.2-7.2,5.4-11.7,6.3h-0.6c0.1,0.2,0.2,0.4,0.2,0.5
	c0.2,0.9,0.2,1.8,0,2.7c0.4-0.1,0.7-0.2,1.1-0.3c2.7-0.5,5-0.2,5.3,0.5c0.2,0.8-1.9,1.9-4.6,2.6c-0.9,0.2-1.8,0.3-2.8,0.2
	c-0.2,0.3-0.3,0.5-0.4,0.8c1.6,0.9,3.1,2.1,4.3,3.7c1.7-0.1,3.4-0.4,5-0.8C160.3,97.8,164.6,92.5,163.1,88.2z"/>
<path class="st1" d="M138.2,76.3C138.2,76.3,138.2,76.3,138.2,76.3c-0.2-0.5-0.4-1.1-0.7-1.5c0-0.1,0-0.1,0-0.2
	c-0.4-0.5-0.7-0.9-1.1-1.3c0,0-0.1-0.2-0.2-0.2c-0.1,0-0.9-0.7-1.5-1.1c-0.1-0.1-0.2-0.1-0.3-0.2c-0.5-0.4-1.2-0.6-1.8-0.9h-0.4
	c-0.6-0.3-1.4-0.5-2.1-0.7h-0.4c-0.7-0.2-1.6-0.4-2.4-0.5h-0.3c-0.8,0-1.7-0.2-2.6-0.3h-1.2c-2.3,0-4.6,0.3-6.8,0.8
	c1.5,2,2,4.5,1.7,7c0.9-0.1,1.8-0.1,2.7,0c2.7,0.3,5,1.3,4.8,2.1c-0.2,0.8-2.6,1.4-5.2,1.1c-1.1-0.1-2.2-0.4-3.2-0.6
	c-0.1,0.1-0.1,0.2-0.1,0.3c2,0.8,3.8,2,5.4,3.5c0.6,0.5,1.1,1.3,1.6,1.9c0.2,0.4,0.5,0.7,0.6,1c1.8-0.1,3.6-0.5,5.3-0.9l0,0L132,85
	c0.5-0.2,1.1-0.5,1.6-0.6l0,0c1-0.5,2-1.1,2.8-1.9c0.3-0.2,0.5-0.5,0.8-0.7l0.5-0.7l0,0c0.4-0.5,0.6-1.2,0.8-1.8
	c0.1-0.4,0.2-0.7,0.2-1.2C138.8,77.5,138.6,76.9,138.2,76.3z"/>
<path class="st1" d="M157.8,75.3c-0.2-0.5-0.5-1-0.7-1.6l-0.3-0.4c-0.3-0.4-0.5-0.7-0.9-1l-0.4-0.3c-0.5-0.5-1-0.7-1.6-1.1l-0.3-0.1
	l-1.6-0.6c-0.2,0-0.4-0.1-0.5-0.2c-0.5-0.2-1.1-0.3-1.7-0.4c-0.2,0-0.4,0-0.5,0c-0.8-0.1-1.6-0.2-2.6-0.2h-2h-0.9
	c-1.1,0.1-2.1,0.3-3.2,0.5c-1.1,0.3-2.2,0.5-3.2,1c2.4,1.6,3.8,4.2,3.8,7v0.2h0.7c2.8-0.5,5.3,0,5.4,0.8s-2,2-4.8,2.6
	c-0.7,0.1-1.6,0.2-2.3,0.2c-0.4,0.6-0.8,1.3-1.3,1.8c2.2,0.9,4,2.5,5.3,4.5c0.4,0,0.6-0.1,1-0.2C153.6,85.6,159.2,80.2,157.8,75.3z"
	/>
<path class="st1" d="M109,83.3l-1.6,0.5L109,83.3z"/>
<path class="st1" d="M111,82.3l-1.3,0.6L111,82.3z"/>
<path class="st1" d="M112.9,81.1c-0.4,0.3-0.7,0.5-1.1,0.8C112.1,81.7,112.5,81.4,112.9,81.1z"/>
<path class="st1" d="M108.5,92.9c-0.1,1.7-0.6,3.5-1.5,5c0.4,0,0.6,0,1,0.2c0.8,0,1.6,0.2,2.6,0.2h1.1h1.5c0.4,0,0.6,0,1.1-0.2
	c0.5,0,0.9-0.1,1.3-0.2l1-0.3l1.2-0.5l0.9-0.4c0.2-0.1,0.4-0.2,0.5-0.3l0.5-0.3l0.7-0.5c0.3-0.2,0.5-0.5,0.8-0.7l0,0l0.5-0.5
	c0.2-0.3,0.5-0.6,0.6-0.9l0.4-0.5c0.3-0.5,0.5-1.1,0.5-1.6c0.5-3.7-2.6-7.3-7.5-9.3c-2.4,2.4-5.4,3.9-8.7,4.4
	c0.4,0.7,0.7,1.6,0.9,2.4c0.9,0,1.8,0.2,2.7,0.4c2.7,0.6,4.8,1.8,4.7,2.8l0,0c-0.2,0.9-2.7,1.1-5.6,0.5c-0.5-0.1-0.9-0.3-1.4-0.5
	c0,0,0,0.3,0,0.5s0,0.3,0,0.5"/>
<path class="st1" d="M103,81c1,0.8,2,1.8,2.8,2.9h0.7l0.7-0.2l1.6-0.5c0.3-0.1,0.5-0.3,0.8-0.3l1.3-0.6l0.7-0.4
	c0.4-0.3,0.7-0.5,1.1-0.8c0,0,0-0.1,0.2-0.2c0.2,0,0.3-0.2,0.4-0.4c0.4-0.4,0.6-0.6,0.9-1c0.1-0.2,0.2-0.4,0.4-0.5
	c0-0.1,0-0.1,0-0.2c0.3-0.5,0.5-1,0.6-1.6c1.4-5.3-4.1-11.1-12.4-12.9c-1-0.3-2.1-0.4-3.1-0.5C98.9,64,98,64,97,64.1h-0.5l-1.3,0.1
	c1.8,2.4,2.8,5.1,3.1,8c1.2,0,2.3,0.2,3.4,0.5c3.4,0.7,5.9,2.2,5.7,3.1c-0.3,1-3.2,1.2-6.6,0.5c-1-0.2-1.8-0.5-2.6-0.8
	c-0.1,0.8-0.3,1.7-0.6,2.6c1,0.4,1.9,0.8,2.8,1.4C101.4,79.8,102.2,80.4,103,81"/>
</svg>
